/* XPM */
static char *result[] = {
/* columns rows colors chars-per-pixel */
"50 50 3 1 ",
"  c #383850",
". c #405860",
"X c #587078",
/* pixels */
"................   XXX.........   XXX.............",
"................   XXX.........   XXX.............",
"................   XXX.........   XXX.............",
"............    XXXXXX         XXX................",
"............    XXXXXX         XXX................",
"............    XXXXXX         XXX................",
".........   XXXXXXXXXXXXXXXXXXXXXX................",
".........   XXXXXXXXXXXXXXXXXXXXXX................",
".........   XXXXXXXXXXXXXXXXXXXXXX................",
"         XXXXXXX...............XXX   ..........   ",
"         XXXXXXX...............XXX   ..........   ",
"         XXXXXXX...............XXX   ..........   ",
"XXXXXXXXXXXX......................XXX          XXX",
"XXXXXXXXXXXX......................XXX          XXX",
"XXXXXXXXXXXX......................XXX          XXX",
"XXXXXXXXXXXX......................XXX          XXX",
".........XXX.........................XXXXXXXXXX...",
".........XXX.........................XXXXXXXXXX...",
".........XXX.........................XXXXXXXXXX...",
".........XXX.......   ...................XXX......",
".........XXX.......   ...................XXX......",
".........XXX.......   ...................XXX......",
".........XXX................   ..........XXX......",
".........XXX................   ..........XXX......",
".........XXX................   ..........XXX......",
".........XXX.............................XXX......",
".........XXX.............................XXX......",
".........XXX.............................XXX......",
"......   XXX..........   ................XXX......",
"......   XXX..........   ................XXX......",
"......   XXX..........   ................XXX......",
"      XXXXXX    .....................    XXX      ",
"      XXXXXX    .....................    XXX      ",
"      XXXXXX    .....................    XXX      ",
"XXXXXXXXXXXXXXXX   ......            XXXXXXXXXXXXX",
"XXXXXXXXXXXXXXXX   ......            XXXXXXXXXXXXX",
"XXXXXXXXXXXXXXXX   ......            XXXXXXXXXXXXX",
"............XXXXXXX      XXXXXXXXXXXXXXXX.........",
"............XXXXXXX      XXXXXXXXXXXXXXXX.........",
"............XXXXXXX      XXXXXXXXXXXXXXXX.........",
"............XXXXXXX      XXXXXXXXXXXXXXXX.........",
"................XXXXXXXXXXXX......XXX.............",
"................XXXXXXXXXXXX......XXX.............",
"................XXXXXXXXXXXX......XXX.............",
"......   ..........XXX............XXX.......   ...",
"......   ..........XXX............XXX.......   ...",
"......   ..........XXX............XXX.......   ...",
"...................XXX............XXX.............",
"...................XXX............XXX.............",
"...................XXX............XXX............."
};
