/* XPM */
static char *result[] = {
/* columns rows colors chars-per-pixel */
"50 50 5 1 ",
"  c #282828",
". c #305030",
"X c #407048",
"o c #80A870",
"O c #C8D0A0",
/* pixels */
"                                                  ",
"                                                  ",
"                                                  ",
"   OOOOOOooooooooooooooooooooooooooooooooOOOOOO   ",
"   OOOOOOooooooooooooooooooooooooooooooooOOOOOO   ",
"   OOOOOOooooooooooooooooooooooooooooooooOOOOOO   ",
"   ooooooOOOoooooooooooooooooooooooooOOOOoooXXX   ",
"   ooooooOOOoooooooooooooooooooooooooOOOOoooXXX   ",
"   ooooooOOOoooooooooooooooooooooooooOOOOoooXXX   ",
"   oooooooooOOOOOOOOOOOOOOOOOOOOOOOOOooooXXXXXX   ",
"   oooooooooOOOOOOOOOOOOOOOOOOOOOOOOOooooXXXXXX   ",
"   oooooooooOOOOOOOOOOOOOOOOOOOOOOOOOooooXXXXXX   ",
"   oooooooooOOOOOOOOOOOOOOOOOOOOOOOOOXXXXXXXXXX   ",
"   oooooooooOOOOOOOOOOOOOOOOOOOOOOOOOXXXXXXXXXX   ",
"   oooooooooOOOOOOOOOOOOOOOOOOOOOOOOOXXXXXXXXXX   ",
"   oooooooooOOOOOOOOOOOOOOOOOOOOOOOOOXXXXXXXXXX   ",
"   oooooooooOOOOOOOOOOOOOOOOOOOOOOOOOXXXXXXXXXX   ",
"   oooooooooOOOOOOOOOOOOOOOOOOOOOOOOOXXXXXXXXXX   ",
"   oooooooooOOOOOOOOOOOOOOOOOOOOOOOOOXXXXXXXXXX   ",
"   oooooooooOOOOOOOOOOOOOOOOOOOOOOOOOXXXXXXXXXX   ",
"   oooooooooOOOOOOOOOOOOOOOOOOOOOOOOOXXXXXXXXXX   ",
"   oooooooooOOOOOOOOOOOOOOOOOOOOOOOOOXXXXXXXXXX   ",
"   oooooooooOOOOOOOOOOOOOOOOOOOOOOOOOXXXXXXXXXX   ",
"   oooooooooOOOOOOOOOOOOOOOOOOOOOOOOOXXXXXXXXXX   ",
"   oooooooooOOOOOOOOOOOOOOOOOOOOOOOOOXXXXXXXXXX   ",
"   oooooooooOOOOOOOOOOOOOOOOOOOOOOOOOXXXXXXXXXX   ",
"   oooooooooOOOOOOOOOOOOOOOOOOOOOOOOOXXXXXXXXXX   ",
"   oooooooooOOOOOOOOOOOOOOOOOOOOOOOOOXXXXXXXXXX   ",
"   oooooooooOOOOOOOOOOOOOOOOOOOOOOOOOXXXXXXXXXX   ",
"   oooooooooOOOOOOOOOOOOOOOOOOOOOOOOOXXXXXXXXXX   ",
"   oooooooooOOOOOOOOOOOOOOOOOOOOOOOOOXXXXXXXXXX   ",
"   oooooooooOOOOOOOOOOOOOOOOOOOOOOOOOXXXXXXXXXX   ",
"   oooooooooOOOOOOOOOOOOOOOOOOOOOOOOOXXXXXXXXXX   ",
"   oooooooooOOOOOOOOOOOOOOOOOOOOOOOOOXXXXXXXXXX   ",
"   ooooooOOOooooXXXXXXXXXXXXXXXXXXXXXooooXXXXXX   ",
"   ooooooOOOooooXXXXXXXXXXXXXXXXXXXXXooooXXXXXX   ",
"   ooooooOOOooooXXXXXXXXXXXXXXXXXXXXXooooXXXXXX   ",
"   oooOOOoooXXXXXXXXXXXXXXXXXXXXXXXXXXXXXoooXXX   ",
"   oooOOOoooXXXXXXXXXXXXXXXXXXXXXXXXXXXXXoooXXX   ",
"   oooOOOoooXXXXXXXXXXXXXXXXXXXXXXXXXXXXXoooXXX   ",
"   oooOOOoooXXXXXXXXXXXXXXXXXXXXXXXXXXXXXoooXXX   ",
"   OOOoooXXXXXXXXXXXXXXXXXXXXXXXXXXXXXXXXXXXooo   ",
"   OOOoooXXXXXXXXXXXXXXXXXXXXXXXXXXXXXXXXXXXooo   ",
"   OOOoooXXXXXXXXXXXXXXXXXXXXXXXXXXXXXXXXXXXooo   ",
"   ............................................   ",
"   ............................................   ",
"   ............................................   ",
"                                                  ",
"                                                  ",
"                                                  "
};
